<mxfile host="app.diagrams.net" modified="2021-06-02T05:50:46.624Z" agent="5.0 (Windows NT 10.0; Win64; x64) AppleWebKit/537.36 (KHTML, like Gecko) Chrome/91.0.4472.77 Safari/537.36" etag="mBxmURfnsIkaAaCm9pBe" version="14.7.3" type="github">
  <diagram id="prtHgNgQTEPvFCAcTncT" name="Page-1">
    <mxGraphModel dx="1038" dy="613" grid="1" gridSize="10" guides="1" tooltips="1" connect="1" arrows="1" fold="1" page="1" pageScale="1" pageWidth="827" pageHeight="1169" math="0" shadow="0">
      <root>
        <mxCell id="0" />
        <mxCell id="1" parent="0" />
        <mxCell id="Hp5FtpzESSWTsJGM-x1K-1" value="用户层" style="rounded=1;whiteSpace=wrap;labelPosition=center;verticalLabelPosition=middle;align=left;verticalAlign=top;" parent="1" vertex="1">
          <mxGeometry x="170" y="80" width="430" height="80" as="geometry" />
        </mxCell>
        <mxCell id="Hp5FtpzESSWTsJGM-x1K-2" value="终端显示层（WEB）" style="rounded=1;whiteSpace=wrap;html=1;labelPosition=center;verticalLabelPosition=middle;align=center;verticalAlign=middle;fillColor=#d5e8d4;strokeColor=#82b366;" parent="1" vertex="1">
          <mxGeometry x="240" y="90" width="130" height="60" as="geometry" />
        </mxCell>
        <mxCell id="Hp5FtpzESSWTsJGM-x1K-3" value="服务器层（Tomcat Server）" style="rounded=1;whiteSpace=wrap;labelPosition=center;verticalLabelPosition=middle;align=left;verticalAlign=top;" parent="1" vertex="1">
          <mxGeometry x="170" y="180" width="430" height="300" as="geometry" />
        </mxCell>
        <mxCell id="Hp5FtpzESSWTsJGM-x1K-7" value="业务逻辑层" style="rounded=1;whiteSpace=wrap;html=1;align=left;verticalAlign=top;labelPosition=center;verticalLabelPosition=middle;fillColor=#d5e8d4;strokeColor=#82b366;" parent="1" vertex="1">
          <mxGeometry x="230" y="310" width="240" height="60" as="geometry" />
        </mxCell>
        <mxCell id="Hp5FtpzESSWTsJGM-x1K-8" value="数据访问层" style="rounded=1;whiteSpace=wrap;html=1;align=left;verticalAlign=top;labelPosition=center;verticalLabelPosition=middle;fillColor=#d5e8d4;strokeColor=#82b366;" parent="1" vertex="1">
          <mxGeometry x="230" y="410" width="240" height="60" as="geometry" />
        </mxCell>
        <mxCell id="Hp5FtpzESSWTsJGM-x1K-10" value="请求处理层" style="rounded=1;whiteSpace=wrap;html=1;align=left;verticalAlign=top;labelPosition=center;verticalLabelPosition=middle;fillColor=#d5e8d4;strokeColor=#82b366;" parent="1" vertex="1">
          <mxGeometry x="230" y="220" width="240" height="60" as="geometry" />
        </mxCell>
        <mxCell id="Hp5FtpzESSWTsJGM-x1K-11" value="WEB" style="rounded=1;whiteSpace=wrap;html=1;labelPosition=center;verticalLabelPosition=middle;align=center;verticalAlign=middle;" parent="1" vertex="1">
          <mxGeometry x="270" y="250" width="90" height="30" as="geometry" />
        </mxCell>
        <mxCell id="Hp5FtpzESSWTsJGM-x1K-13" value="Service" style="rounded=1;whiteSpace=wrap;html=1;labelPosition=center;verticalLabelPosition=middle;align=center;verticalAlign=middle;" parent="1" vertex="1">
          <mxGeometry x="270" y="340" width="90" height="30" as="geometry" />
        </mxCell>
        <mxCell id="Hp5FtpzESSWTsJGM-x1K-14" value="Dao" style="rounded=1;whiteSpace=wrap;html=1;labelPosition=center;verticalLabelPosition=middle;align=center;verticalAlign=middle;" parent="1" vertex="1">
          <mxGeometry x="277.5" y="440" width="90" height="30" as="geometry" />
        </mxCell>
        <mxCell id="Hp5FtpzESSWTsJGM-x1K-16" value="数据库" style="rounded=1;whiteSpace=wrap;labelPosition=center;verticalLabelPosition=middle;align=left;verticalAlign=top;" parent="1" vertex="1">
          <mxGeometry x="170" y="510" width="430" height="95" as="geometry" />
        </mxCell>
        <mxCell id="Hp5FtpzESSWTsJGM-x1K-17" value="MySQL" style="shape=datastore;whiteSpace=wrap;html=1;align=left;verticalAlign=top;fillColor=#dae8fc;strokeColor=#6c8ebf;" parent="1" vertex="1">
          <mxGeometry x="300" y="527.5" width="60" height="60" as="geometry" />
        </mxCell>
        <mxCell id="Hp5FtpzESSWTsJGM-x1K-18" value="操作系统" style="rounded=1;whiteSpace=wrap;labelPosition=center;verticalLabelPosition=middle;align=left;verticalAlign=top;" parent="1" vertex="1">
          <mxGeometry x="170" y="620" width="430" height="80" as="geometry" />
        </mxCell>
        <mxCell id="Hp5FtpzESSWTsJGM-x1K-19" value="Windows" style="rounded=0;whiteSpace=wrap;html=1;align=left;verticalAlign=top;" parent="1" vertex="1">
          <mxGeometry x="230" y="645" width="170" height="30" as="geometry" />
        </mxCell>
        <mxCell id="Hp5FtpzESSWTsJGM-x1K-20" value="" style="shape=doubleArrow;direction=south;whiteSpace=wrap;html=1;align=left;verticalAlign=top;" parent="1" vertex="1">
          <mxGeometry x="310" y="150" width="25" height="70" as="geometry" />
        </mxCell>
        <mxCell id="Hp5FtpzESSWTsJGM-x1K-22" value="" style="shape=doubleArrow;direction=south;whiteSpace=wrap;html=1;align=left;verticalAlign=top;" parent="1" vertex="1">
          <mxGeometry x="312.5" y="280" width="20" height="30" as="geometry" />
        </mxCell>
        <mxCell id="Hp5FtpzESSWTsJGM-x1K-24" value="" style="shape=doubleArrow;direction=south;whiteSpace=wrap;html=1;align=left;verticalAlign=top;" parent="1" vertex="1">
          <mxGeometry x="315" y="370" width="15" height="40" as="geometry" />
        </mxCell>
        <mxCell id="Hp5FtpzESSWTsJGM-x1K-25" value="&lt;div style=&quot;text-align: justify&quot;&gt;&lt;span&gt;JDBC&lt;/span&gt;&lt;/div&gt;" style="shape=doubleArrow;direction=south;whiteSpace=wrap;html=1;align=right;verticalAlign=middle;labelPosition=left;verticalLabelPosition=middle;" parent="1" vertex="1">
          <mxGeometry x="320" y="470" width="30" height="50" as="geometry" />
        </mxCell>
        <mxCell id="Sc22l_-Fa5nMXFslgdhS-1" value="SpringMVC" style="rounded=1;whiteSpace=wrap;html=1;labelPosition=center;verticalLabelPosition=middle;align=center;verticalAlign=middle;" vertex="1" parent="1">
          <mxGeometry x="370" y="250" width="90" height="30" as="geometry" />
        </mxCell>
        <mxCell id="Sc22l_-Fa5nMXFslgdhS-2" value="Spring AOP IOC" style="rounded=1;whiteSpace=wrap;html=1;labelPosition=center;verticalLabelPosition=middle;align=center;verticalAlign=middle;" vertex="1" parent="1">
          <mxGeometry x="370" y="340" width="90" height="30" as="geometry" />
        </mxCell>
        <mxCell id="Sc22l_-Fa5nMXFslgdhS-3" value="Mybatis" style="rounded=1;whiteSpace=wrap;html=1;labelPosition=center;verticalLabelPosition=middle;align=center;verticalAlign=middle;" vertex="1" parent="1">
          <mxGeometry x="370" y="440" width="90" height="30" as="geometry" />
        </mxCell>
      </root>
    </mxGraphModel>
  </diagram>
</mxfile>
